name rise30.2954peak35.7071fall66.7804.mot
datacolumns 19
datarows 30
range 16.35327200000000 16.40160700000000
endheader
time	ground_force1_vx	ground_force1_vy	ground_force1_vz	ground_force1_px	ground_force1_py	ground_force1_pz	ground_force2_vx	ground_force2_vy	ground_force2_vz	ground_force2_px	ground_force2_py	ground_force2_pz	ground_torque1_x	ground_torque1_y	ground_torque1_z	ground_torque2_x	ground_torque2_y	ground_torque2_z	
16.35327200000000	56.33780900000000	751.36353899999995	56.65807100000000	0.25169700000000	0.00000000000000	0.12321900000000	0.00000000000000	0.00000000000000	0.00000000000000	0.00000000000000	0.00000000000000	0.00000000000000	0.00000000000000	14.12505000000000	0.00000000000000	0.00000000000000	0.00000000000000	0.00000000000000	
16.35494200000000	55.75200800000000	754.50623900000005	56.76445400000000	0.25084800000000	0.00000000000000	0.12320700000000	0.00000000000000	0.00000000000000	0.00000000000000	0.00000000000000	0.00000000000000	0.00000000000000	0.00000000000000	14.18357200000000	0.00000000000000	0.00000000000000	0.00000000000000	0.00000000000000	
16.35661200000000	55.16995100000000	757.53881500000000	56.86965300000000	0.25003900000000	0.00000000000000	0.12319500000000	0.00000000000000	0.00000000000000	0.00000000000000	0.00000000000000	0.00000000000000	0.00000000000000	0.00000000000000	14.24349600000000	0.00000000000000	0.00000000000000	0.00000000000000	0.00000000000000	
16.35827600000000	54.59211600000000	760.45820800000001	56.97395400000000	0.24926800000000	0.00000000000000	0.12318200000000	0.00000000000000	0.00000000000000	0.00000000000000	0.00000000000000	0.00000000000000	0.00000000000000	0.00000000000000	14.30485200000000	0.00000000000000	0.00000000000000	0.00000000000000	0.00000000000000	
16.35993900000000	54.01888400000000	763.26140399999997	57.07755800000000	0.24853200000000	0.00000000000000	0.12316900000000	0.00000000000000	0.00000000000000	0.00000000000000	0.00000000000000	0.00000000000000	0.00000000000000	0.00000000000000	14.36763400000000	0.00000000000000	0.00000000000000	0.00000000000000	0.00000000000000	
16.36160600000000	53.45055000000000	765.94545900000003	57.18058700000000	0.24782900000000	0.00000000000000	0.12315500000000	0.00000000000000	0.00000000000000	0.00000000000000	0.00000000000000	0.00000000000000	0.00000000000000	0.00000000000000	14.43180200000000	0.00000000000000	0.00000000000000	0.00000000000000	0.00000000000000	
16.36327800000000	52.88731900000000	768.50751900000000	57.28308400000000	0.24715700000000	0.00000000000000	0.12314100000000	0.00000000000000	0.00000000000000	0.00000000000000	0.00000000000000	0.00000000000000	0.00000000000000	0.00000000000000	14.49728300000000	0.00000000000000	0.00000000000000	0.00000000000000	0.00000000000000	
16.36494600000000	52.32931700000000	770.94483900000000	57.38501800000000	0.24651400000000	0.00000000000000	0.12312700000000	0.00000000000000	0.00000000000000	0.00000000000000	0.00000000000000	0.00000000000000	0.00000000000000	0.00000000000000	14.56397100000000	0.00000000000000	0.00000000000000	0.00000000000000	0.00000000000000	
16.36660900000000	51.77659100000000	773.25480600000003	57.48628800000000	0.24589700000000	0.00000000000000	0.12311300000000	0.00000000000000	0.00000000000000	0.00000000000000	0.00000000000000	0.00000000000000	0.00000000000000	0.00000000000000	14.63173400000000	0.00000000000000	0.00000000000000	0.00000000000000	0.00000000000000	
16.36827800000000	51.22911400000000	775.43495700000005	57.58672500000000	0.24530200000000	0.00000000000000	0.12309900000000	0.00000000000000	0.00000000000000	0.00000000000000	0.00000000000000	0.00000000000000	0.00000000000000	0.00000000000000	14.70040900000000	0.00000000000000	0.00000000000000	0.00000000000000	0.00000000000000	
16.36994000000000	50.68679300000000	777.48299399999996	57.68609900000000	0.24472800000000	0.00000000000000	0.12308600000000	0.00000000000000	0.00000000000000	0.00000000000000	0.00000000000000	0.00000000000000	0.00000000000000	0.00000000000000	14.76981100000000	0.00000000000000	0.00000000000000	0.00000000000000	0.00000000000000	
16.37161200000000	50.14947400000000	779.39680699999997	57.78412100000000	0.24417200000000	0.00000000000000	0.12307200000000	0.00000000000000	0.00000000000000	0.00000000000000	0.00000000000000	0.00000000000000	0.00000000000000	0.00000000000000	14.83972900000000	0.00000000000000	0.00000000000000	0.00000000000000	0.00000000000000	
16.37327900000000	49.61694400000000	781.17448700000000	57.88044800000000	0.24363000000000	0.00000000000000	0.12305900000000	0.00000000000000	0.00000000000000	0.00000000000000	0.00000000000000	0.00000000000000	0.00000000000000	0.00000000000000	14.90993400000000	0.00000000000000	0.00000000000000	0.00000000000000	0.00000000000000	
16.37493900000000	49.08894300000000	782.81434200000001	57.97469300000000	0.24309900000000	0.00000000000000	0.12304600000000	0.00000000000000	0.00000000000000	0.00000000000000	0.00000000000000	0.00000000000000	0.00000000000000	0.00000000000000	14.98017800000000	0.00000000000000	0.00000000000000	0.00000000000000	0.00000000000000	
16.37660700000000	48.56516400000000	784.31491300000005	58.06642200000000	0.24257700000000	0.00000000000000	0.12303300000000	0.00000000000000	0.00000000000000	0.00000000000000	0.00000000000000	0.00000000000000	0.00000000000000	0.00000000000000	15.05019700000000	0.00000000000000	0.00000000000000	0.00000000000000	0.00000000000000	
16.37827400000000	48.04526500000000	785.67498399999999	58.15516800000000	0.24206100000000	0.00000000000000	0.12302100000000	0.00000000000000	0.00000000000000	0.00000000000000	0.00000000000000	0.00000000000000	0.00000000000000	0.00000000000000	15.11971400000000	0.00000000000000	0.00000000000000	0.00000000000000	0.00000000000000	
16.37993900000000	47.52886900000000	786.89359400000001	58.24043000000000	0.24154700000000	0.00000000000000	0.12301000000000	0.00000000000000	0.00000000000000	0.00000000000000	0.00000000000000	0.00000000000000	0.00000000000000	0.00000000000000	15.18844000000000	0.00000000000000	0.00000000000000	0.00000000000000	0.00000000000000	
16.38160400000000	47.01557500000000	787.97004900000002	58.32168500000000	0.24103300000000	0.00000000000000	0.12299900000000	0.00000000000000	0.00000000000000	0.00000000000000	0.00000000000000	0.00000000000000	0.00000000000000	0.00000000000000	15.25608100000000	0.00000000000000	0.00000000000000	0.00000000000000	0.00000000000000	
16.38327300000000	46.50496400000000	788.90393099999994	58.39838800000000	0.24051600000000	0.00000000000000	0.12298900000000	0.00000000000000	0.00000000000000	0.00000000000000	0.00000000000000	0.00000000000000	0.00000000000000	0.00000000000000	15.32233400000000	0.00000000000000	0.00000000000000	0.00000000000000	0.00000000000000	
16.38493800000000	45.99660200000000	789.69510200000002	58.46997800000000	0.23999200000000	0.00000000000000	0.12297900000000	0.00000000000000	0.00000000000000	0.00000000000000	0.00000000000000	0.00000000000000	0.00000000000000	0.00000000000000	15.38689500000000	0.00000000000000	0.00000000000000	0.00000000000000	0.00000000000000	
16.38661000000000	45.49004900000000	790.34371499999997	58.53589000000000	0.23946000000000	0.00000000000000	0.12297100000000	0.00000000000000	0.00000000000000	0.00000000000000	0.00000000000000	0.00000000000000	0.00000000000000	0.00000000000000	15.44945900000000	0.00000000000000	0.00000000000000	0.00000000000000	0.00000000000000	
16.38827200000000	44.98486100000000	790.85021200000006	58.59555300000000	0.23891700000000	0.00000000000000	0.12296300000000	0.00000000000000	0.00000000000000	0.00000000000000	0.00000000000000	0.00000000000000	0.00000000000000	0.00000000000000	15.50972300000000	0.00000000000000	0.00000000000000	0.00000000000000	0.00000000000000	
16.38994500000000	44.48060200000000	791.21533399999998	58.64839900000000	0.23835900000000	0.00000000000000	0.12295600000000	0.00000000000000	0.00000000000000	0.00000000000000	0.00000000000000	0.00000000000000	0.00000000000000	0.00000000000000	15.56738800000000	0.00000000000000	0.00000000000000	0.00000000000000	0.00000000000000	
16.39160500000000	43.97684500000000	791.44011799999998	58.69386700000000	0.23778600000000	0.00000000000000	0.12294900000000	0.00000000000000	0.00000000000000	0.00000000000000	0.00000000000000	0.00000000000000	0.00000000000000	0.00000000000000	15.62216400000000	0.00000000000000	0.00000000000000	0.00000000000000	0.00000000000000	
16.39327900000000	43.47317500000000	791.52589799999998	58.73141000000000	0.23719300000000	0.00000000000000	0.12294400000000	0.00000000000000	0.00000000000000	0.00000000000000	0.00000000000000	0.00000000000000	0.00000000000000	0.00000000000000	15.67376800000000	0.00000000000000	0.00000000000000	0.00000000000000	0.00000000000000	
16.39494300000000	42.96920100000000	791.47430499999996	58.76049600000000	0.23658100000000	0.00000000000000	0.12293900000000	0.00000000000000	0.00000000000000	0.00000000000000	0.00000000000000	0.00000000000000	0.00000000000000	0.00000000000000	15.72192800000000	0.00000000000000	0.00000000000000	0.00000000000000	0.00000000000000	
16.39660500000000	42.46455500000000	791.28726500000005	58.78061700000000	0.23594500000000	0.00000000000000	0.12293500000000	0.00000000000000	0.00000000000000	0.00000000000000	0.00000000000000	0.00000000000000	0.00000000000000	0.00000000000000	15.76638700000000	0.00000000000000	0.00000000000000	0.00000000000000	0.00000000000000	
16.39827400000000	41.95889600000000	790.96699100000001	58.79128800000000	0.23528500000000	0.00000000000000	0.12293200000000	0.00000000000000	0.00000000000000	0.00000000000000	0.00000000000000	0.00000000000000	0.00000000000000	0.00000000000000	15.80690300000000	0.00000000000000	0.00000000000000	0.00000000000000	0.00000000000000	
16.39993900000000	41.45191700000000	790.51598300000001	58.79205600000000	0.23459900000000	0.00000000000000	0.12292900000000	0.00000000000000	0.00000000000000	0.00000000000000	0.00000000000000	0.00000000000000	0.00000000000000	0.00000000000000	15.84325000000000	0.00000000000000	0.00000000000000	0.00000000000000	0.00000000000000	
16.40160700000000	40.94335000000000	789.93701799999997	58.78249900000000	0.23388600000000	0.00000000000000	0.12292700000000	0.00000000000000	0.00000000000000	0.00000000000000	0.00000000000000	0.00000000000000	0.00000000000000	0.00000000000000	15.87522100000000	0.00000000000000	0.00000000000000	0.00000000000000	0.00000000000000	
